# xmcd CD database file
#
# Track frame offsets:
#	187
#	24937
#	43160
#	59752
#	77645
#	99400
#	124077
#	141735
#	162780
#	178267
#	213915
#	233290
#
# Disc length: 3524 seconds
#
# Revision: 3
# Processed by: cddbd v1.5.1PL0 Copyright (c) Steve Scherf et al.
# Submitted via: CDex 1.51
#
DISCID=a10dc20c
DTITLE=佐久間　学 - Shock My Head [PSCR-5163]
DYEAR=1991
DGENRE=Vocal
TTITLE0=Gangster Blue
TTITLE1=鐘が告げた日
TTITLE2=I Hate Hittler
TTITLE3=Magnum 44
TTITLE4=Mr. Mr.
TTITLE5=愛しき人よ
TTITLE6=Wanderlust
TTITLE7=Jackknife Blues
TTITLE8=Move Over
TTITLE9=Sister, Where Do You Go
TTITLE10=Shock My Head
TTITLE11=The Oldman Blues
EXTD=YEAR: 1991
EXTT0=
EXTT1=
EXTT2=
EXTT3=
EXTT4=
EXTT5=
EXTT6=
EXTT7=
EXTT8=
EXTT9=
EXTT10=
EXTT11=
PLAYORDER=
